<svg width="20" height="20" viewBox="0 0 20 20" fill="none" xmlns="http://www.w3.org/2000/svg">
<path d="M1.25 16.6668L0.501856 16.6141L0.44527 17.4168H1.25V16.6668ZM11.25 16.6668V17.4168H12.0547L11.9981 16.6141L11.25 16.6668ZM18.75 16.6668V17.4168H19.5547L19.4981 16.6141L18.75 16.6668ZM8.75 5.8335H8C8 6.79999 7.2165 7.5835 6.25 7.5835V8.3335V9.0835C8.04493 9.0835 9.5 7.62842 9.5 5.8335H8.75ZM6.25 8.3335V7.5835C5.2835 7.5835 4.5 6.79999 4.5 5.8335H3.75H3C3 7.62842 4.45507 9.0835 6.25 9.0835V8.3335ZM3.75 5.8335H4.5C4.5 4.867 5.2835 4.0835 6.25 4.0835V3.3335V2.5835C4.45507 2.5835 3 4.03857 3 5.8335H3.75ZM6.25 3.3335V4.0835C7.2165 4.0835 8 4.867 8 5.8335H8.75H9.5C9.5 4.03857 8.04493 2.5835 6.25 2.5835V3.3335ZM16.25 5.8335H15.5C15.5 6.79999 14.7165 7.5835 13.75 7.5835V8.3335V9.0835C15.5449 9.0835 17 7.62842 17 5.8335H16.25ZM13.75 8.3335V7.5835C12.7835 7.5835 12 6.79999 12 5.8335H11.25H10.5C10.5 7.62842 11.9551 9.0835 13.75 9.0835V8.3335ZM11.25 5.8335H12C12 4.867 12.7835 4.0835 13.75 4.0835V3.3335V2.5835C11.9551 2.5835 10.5 4.03857 10.5 5.8335H11.25ZM13.75 3.3335V4.0835C14.7165 4.0835 15.5 4.867 15.5 5.8335H16.25H17C17 4.03857 15.5449 2.5835 13.75 2.5835V3.3335ZM1.25 16.6668V17.4168H11.25V16.6668V15.9168H1.25V16.6668ZM1.25 16.6668L1.99814 16.7196C2.2508 13.1353 4.36343 11.5835 6.25 11.5835C8.13657 11.5835 10.2492 13.1353 10.5019 16.7196L11.25 16.6668L11.9981 16.6141C11.7025 12.4206 9.0893 10.0835 6.25 10.0835C3.4107 10.0835 0.797464 12.4206 0.501856 16.6141L1.25 16.6668ZM11.8953 11.2502L12.2141 11.9291C13.3751 11.3839 14.7197 11.4821 15.8209 12.2355C16.9171 12.9854 17.8411 14.4387 18.0019 16.7196L18.75 16.6668L19.4981 16.6141C19.3115 13.9667 18.2109 12.0531 16.6679 10.9975C15.13 9.94532 13.2209 9.79926 11.5766 10.5713L11.8953 11.2502ZM14.1667 16.6668V17.4168H18.75V16.6668V15.9168H14.1667V16.6668Z" fill="#4D4D4D"/>
</svg>
