<svg width="20" height="20" viewBox="0 0 20 20" fill="none" xmlns="http://www.w3.org/2000/svg">
<path d="M3.75 16.6667L3.00329 16.5965L2.92619 17.4167H3.75V16.6667ZM16.25 16.6667V17.4167H17.0738L16.9967 16.5965L16.25 16.6667ZM12.9167 5.41667H12.1667C12.1667 6.61328 11.1966 7.58333 10 7.58333V8.33333V9.08333C12.025 9.08333 13.6667 7.44171 13.6667 5.41667H12.9167ZM10 8.33333V7.58333C8.80338 7.58333 7.83333 6.61328 7.83333 5.41667H7.08333H6.33333C6.33333 7.44171 7.97496 9.08333 10 9.08333V8.33333ZM7.08333 5.41667H7.83333C7.83333 4.22005 8.80338 3.25 10 3.25V2.5V1.75C7.97496 1.75 6.33333 3.39162 6.33333 5.41667H7.08333ZM10 2.5V3.25C11.1966 3.25 12.1667 4.22005 12.1667 5.41667H12.9167H13.6667C13.6667 3.39162 12.025 1.75 10 1.75V2.5ZM3.75 16.6667L4.49671 16.7369C4.77167 13.812 6.93385 11.5833 10 11.5833V10.8333V10.0833C6.08248 10.0833 3.34323 12.9804 3.00329 16.5965L3.75 16.6667ZM10 10.8333V11.5833C13.0662 11.5833 15.2283 13.812 15.5033 16.7369L16.25 16.6667L16.9967 16.5965C16.6568 12.9804 13.9175 10.0833 10 10.0833V10.8333ZM3.75 16.6667V17.4167H16.25V16.6667V15.9167H3.75V16.6667Z" fill="#808080"/>
</svg>
