<svg width="20" height="20" viewBox="0 0 20 20" fill="none" xmlns="http://www.w3.org/2000/svg">
<path d="M12.0208 10.9837C14.9998 9.74639 18.8026 11.7102 19.1667 16.875H13.9583M8.95825 5.83333C8.95825 7.3291 7.74569 8.54167 6.24992 8.54167C4.75415 8.54167 3.54159 7.3291 3.54159 5.83333C3.54159 4.33756 4.75415 3.125 6.24992 3.125C7.74569 3.125 8.95825 4.33756 8.95825 5.83333ZM16.4583 5.83333C16.4583 7.3291 15.2457 8.54167 13.7499 8.54167C12.2541 8.54167 11.0416 7.3291 11.0416 5.83333C11.0416 4.33756 12.2541 3.125 13.7499 3.125C15.2457 3.125 16.4583 4.33756 16.4583 5.83333ZM0.833252 16.875H11.5475C10.9601 8.54167 1.42068 8.54167 0.833252 16.875Z" stroke="white" stroke-width="1.5" stroke-linecap="round" stroke-linejoin="round"/>
</svg>
