<svg width="20" height="20" viewBox="0 0 20 20" fill="none" xmlns="http://www.w3.org/2000/svg">
<path d="M17.5 6.66683L15 3.3335H5L2.5 6.66683M17.5 6.66683V7.50016C17.5 8.24058 17.1781 8.90582 16.6667 9.36358M17.5 6.66683H2.5M2.5 6.66683V7.50016C2.5 8.24058 2.82188 8.90582 3.33333 9.36358M12.5 7.50016C12.5 8.88087 13.6193 10.0002 15 10.0002C15.6403 10.0002 16.2244 9.75945 16.6667 9.36358M12.5 7.50016V6.66683M12.5 7.50016C12.5 8.88087 11.3807 10.0002 10 10.0002C8.61929 10.0002 7.5 8.88087 7.5 7.50016M7.5 7.50016C7.5 8.88087 6.38071 10.0002 5 10.0002C4.3597 10.0002 3.77563 9.75945 3.33333 9.36358M7.5 7.50016V6.66683M11.6667 16.6668L11.6667 14.1668C11.6667 13.2464 10.9205 12.5002 10 12.5002C9.07953 12.5002 8.33334 13.2464 8.33334 14.1668L8.33333 16.6668M3.33333 9.36358V16.6668H16.6667V9.36358" stroke="#808080" stroke-width="1.5"/>
</svg>
